<?xml version="1.0" encoding="utf-8"?>
<!-- Generator: Adobe Illustrator 21.0.0, SVG Export Plug-In . SVG Version: 6.00 Build 0)  -->
<svg version="1.1" id="Layer_1" xmlns="http://www.w3.org/2000/svg" xmlns:xlink="http://www.w3.org/1999/xlink" x="0px" y="0px"
	 viewBox="0 0 1650 450" style="enable-background:new 0 0 1650 450;" xml:space="preserve">
<style type="text/css">
	.st0{fill:#CC181E;}
	.st1{fill:#00635A;}
	.st2{clip-path:url(#SVGID_2_);fill:#FFFFFF;}
	.st3{fill:#FFFFFF;}
	.st4{fill:#333333;}
</style>
<circle class="st0" cx="1409.4" cy="224.4" r="205.6"/>
<rect x="58.7" y="419.7" class="st0" width="1358.3" height="10.3"/>
<g>
	<path class="st1" d="M181.9,80.7h-47.6L104,224.4H74.9l30.4-143.7H56.8l5.3-24.4h125L181.9,80.7z"/>
	<path class="st1" d="M205.7,224.4h-29.2l35.5-168h29.3L205.7,224.4z"/>
	<path class="st1" d="M408.1,224.4h-26.7L404,117.7c2.2-9.8,5.2-21.4,8.9-34.7h-0.7c-4,8.8-10.3,18.9-18.9,30.4l-47.6,63.9h-18
		l-19.2-61.8c-1.4-4.3-2.7-9.6-3.9-15.8c-1.2-6.2-1.8-11.8-2-16.6h-0.8c-2.7,17.3-4.8,28.9-6.1,34.8l-22.7,106.5h-26.5l35.6-168
		h34.2l21.9,69.1c2.3,7.4,3.7,14.4,4.1,21h0.6c4.3-9.4,8.7-17.1,13.2-23.2l50.3-66.9h37.4L408.1,224.4z"/>
	<path class="st1" d="M584.8,224.4h-29.1l15.1-71.8h-77.5l-15.1,71.8H449l35.6-168h29.3l-15.1,70.4h77.6l15.1-70.4h29.1L584.8,224.4
		z"/>
	<path class="st1" d="M734.7,224.4l-6.2-42.2h-65.7l-23.4,42.2h-32.9l98.4-168h32.9l26.6,168H734.7z M716.7,89.7v-4.1l0.2-4.1h-0.6
		c-1.6,4.7-3.4,9-5.5,12.9l-36.1,64.3h50.6l-8.2-63.3C716.9,94.1,716.7,92.2,716.7,89.7z"/>
	<path class="st1" d="M931.1,224.4h-28.1l-57.3-120.7c-0.5-1-1.3-3-2.4-5.9c-1.1-2.9-1.8-5-2.1-6.2h-0.7l-1.1,8l-1.4,8.6
		l-24.7,116.3h-27.5l35.5-168h30.6L908,176.5c1.8,4,3.1,7.3,3.9,9.8h0.5c0.4-5.4,1.1-10.6,2.2-15.6l24.4-114.4h27.8L931.1,224.4z"/>
	<path class="st1" d="M1124,91.4c-5.8-4-12.7-7.2-20.8-9.6c-8.1-2.4-16.5-3.6-25.1-3.6c-13.6,0-25.6,3-36,9.1
		c-10.4,6.1-18.5,14.6-24.1,25.6c-5.7,11-8.5,23.6-8.5,37.9c0,16.1,4.3,28.8,12.9,38.1c8.6,9.3,20.4,13.9,35.3,13.9
		c8.4,0,16.3-1.3,23.6-4l8.7-41.5h-36.6l5.2-23.9h65.5l-17.3,81.3c-16.1,8.4-33.7,12.7-52.7,12.7c-15,0-28.2-3.1-39.6-9.3
		s-20.1-15-26.1-26.4c-6.1-11.4-9.1-24.4-9.1-39c0-19.1,4.1-36.3,12.4-51.6c8.3-15.2,20-27,35.2-35.3c15.2-8.3,33-12.4,53.4-12.4
		c16.8,0,33.3,3.4,49.5,10.3L1124,91.4z"/>
</g>
<g id="hinh-tron">
	<g>
		<defs>
			<rect id="SVGID_1_" x="1302.4" y="133.8" width="218.8" height="206.4"/>
		</defs>
		<clipPath id="SVGID_2_">
			<use xlink:href="#SVGID_1_"  style="overflow:visible;"/>
		</clipPath>
		<path class="st2" d="M1503.5,133.8h-183.2c-9.9,0-17.9,8-17.9,17.9V276c0,9.9,8,17.9,17.9,17.9h61.4v24h-9.7c-6.1,0-11,4.9-11,11
			c0,6.1,4.9,11,11,11h79.8c6.1,0,11-4.9,11-11s-4.9-11-11-11h-9.7v-24h61.4c9.9,0,17.9-8,17.9-17.9V151.6
			C1521.4,141.8,1513.3,133.8,1503.5,133.8L1503.5,133.8z M1477.4,282.8c-2.8,0-5-2.2-5-5c0-2.8,2.2-5,5-5c2.8,0,5,2.2,5,5
			C1482.3,280.6,1480.1,282.8,1477.4,282.8L1477.4,282.8z M1499.4,284c-3.4,0-6.2-2.8-6.2-6.2c0-3.4,2.8-6.2,6.2-6.2
			c3.4,0,6.2,2.8,6.2,6.2C1505.5,281.3,1502.8,284,1499.4,284L1499.4,284z M1506.7,265.4h-189.6V151.6c0-1.8,1.4-3.2,3.2-3.2h183.2
			c1.8,0,3.2,1.4,3.2,3.2L1506.7,265.4L1506.7,265.4z M1506.7,265.4"/>
	</g>
	<path class="st3" d="M1420.1,208.7l8.1-4.9c0.7-0.4,1.1-1.2,1-2c-0.1-0.8-0.6-1.5-1.4-1.7l-37-12.9c-0.7-0.3-1.6-0.1-2.1,0.5
		c-0.6,0.6-0.8,1.4-0.5,2.1l12.9,37c0.3,0.8,0.9,1.3,1.7,1.4c0.8,0.1,1.6-0.3,2-1l4.9-8.1l15.1,15.1c0.4,0.4,0.9,0.6,1.5,0.6
		c0.5,0,1.1-0.2,1.5-0.6l7.6-7.6c0.8-0.8,0.8-2.1,0-2.9L1420.1,208.7z M1420.1,208.7"/>
</g>
<g>
	<path class="st4" d="M204.1,292.6c-6.5-3.9-13.3-5.9-20.3-5.9c-6.8,0-12.8,1.6-18.1,4.7c-5.3,3.1-9.4,7.4-12.3,12.9
		c-2.9,5.5-4.3,11.7-4.3,18.6c0,8,2.2,14.3,6.7,18.7c4.4,4.4,10.4,6.7,18,6.7c3.9,0,7.5-0.4,10.9-1.3c3.4-0.9,6.9-2.3,10.6-4.3
		l-3.1,14.1c-6.3,2.7-13.6,4.1-21.9,4.1c-7.3,0-13.7-1.5-19.2-4.5c-5.5-3-9.8-7.3-12.7-12.9c-2.9-5.6-4.4-12-4.4-19.2
		c0-9.8,2.1-18.5,6.3-26.2c4.2-7.7,10.1-13.6,17.8-17.8c7.7-4.1,16.5-6.2,26.6-6.2c7.9,0,15.4,1.5,22.6,4.6L204.1,292.6z"/>
	<path class="st4" d="M289.5,309.9c0,9.1-1.9,17.5-5.8,25.5c-3.8,7.9-9.2,14.2-16,18.8c-6.8,4.6-14.9,6.9-24.2,6.9
		c-6.8,0-12.9-1.5-18.1-4.5c-5.3-3-9.3-7.3-12.2-12.8S209,331.9,209,325c0-7.3,1.2-14.1,3.5-20.4c2.3-6.2,5.7-11.7,10-16.5
		s9.3-8.3,14.8-10.6c5.4-2.3,11.4-3.5,17.8-3.5c6.8,0,12.8,1.5,18,4.4c5.3,3,9.3,7.1,12.2,12.6C288.1,296.5,289.5,302.8,289.5,309.9
		z M274.3,310.4c0-7.3-1.9-13-5.6-17.3c-3.7-4.2-8.8-6.4-15.1-6.4c-5.3,0-10.3,1.7-14.9,5c-4.6,3.3-8.2,8-10.7,14.1
		c-2.6,6.1-3.8,12.4-3.8,19c0,7.1,1.8,12.8,5.5,17.1c3.7,4.2,8.7,6.4,15.1,6.4c5.6,0,10.6-1.6,15.1-4.9c4.5-3.3,8-8,10.6-14.1
		C273,323.2,274.3,316.9,274.3,310.4z"/>
	<path class="st4" d="M368.7,359.5h-14.1L326,299.1c-0.2-0.5-0.6-1.5-1.2-2.9c-0.6-1.4-0.9-2.5-1-3.1h-0.4l-0.5,4l-0.7,4.3
		l-12.4,58.1h-13.8l17.8-84h15.3l28.1,60.1c0.9,2,1.5,3.6,1.9,4.9h0.2c0.2-2.7,0.6-5.3,1.1-7.8l12.2-57.2h13.9L368.7,359.5z"/>
	<path class="st4" d="M465.2,293c-2.9-2-6.4-3.6-10.4-4.8c-4-1.2-8.2-1.8-12.6-1.8c-6.8,0-12.8,1.5-18,4.5c-5.2,3-9.2,7.3-12.1,12.8
		c-2.8,5.5-4.2,11.8-4.2,18.9c0,8,2.2,14.4,6.5,19c4.3,4.6,10.2,7,17.7,7c4.2,0,8.1-0.7,11.8-2l4.3-20.7h-18.3l2.6-12h32.8
		l-8.7,40.7c-8,4.2-16.8,6.3-26.4,6.3c-7.5,0-14.1-1.6-19.8-4.7s-10-7.5-13.1-13.2c-3-5.7-4.5-12.2-4.5-19.5
		c0-9.6,2.1-18.2,6.2-25.8c4.1-7.6,10-13.5,17.6-17.6c7.6-4.1,16.5-6.2,26.7-6.2c8.4,0,16.6,1.7,24.7,5.2L465.2,293z"/>
	<path class="st4" d="M545.5,359.5h-14.1l-28.7-60.4c-0.2-0.5-0.6-1.5-1.2-2.9c-0.6-1.4-0.9-2.5-1-3.1h-0.4l-0.5,4l-0.7,4.3
		l-12.4,58.1h-13.8l17.8-84h15.3l28.1,60.1c0.9,2,1.5,3.6,1.9,4.9h0.2c0.2-2.7,0.6-5.3,1.1-7.8l12.2-57.2h13.9L545.5,359.5z"/>
	<path class="st4" d="M641.9,293c-2.9-2-6.4-3.6-10.4-4.8c-4-1.2-8.2-1.8-12.6-1.8c-6.8,0-12.8,1.5-18,4.5c-5.2,3-9.2,7.3-12.1,12.8
		c-2.8,5.5-4.2,11.8-4.2,18.9c0,8,2.2,14.4,6.5,19c4.3,4.6,10.2,7,17.7,7c4.2,0,8.1-0.7,11.8-2l4.3-20.7h-18.3l2.6-12h32.8
		l-8.7,40.7c-8,4.2-16.8,6.3-26.4,6.3c-7.5,0-14.1-1.6-19.8-4.7s-10-7.5-13.1-13.2c-3-5.7-4.5-12.2-4.5-19.5
		c0-9.6,2.1-18.2,6.2-25.8c4.1-7.6,10-13.5,17.6-17.6c7.6-4.1,16.5-6.2,26.7-6.2c8.4,0,16.6,1.7,24.7,5.2L641.9,293z"/>
	<path class="st4" d="M717.5,359.5H703l7.6-35.9h-38.7l-7.6,35.9h-14.6l17.8-84h14.6l-7.6,35.2h38.8l7.6-35.2h14.5L717.5,359.5z"/>
	<path class="st4" d="M798.6,287.7h-30.9l-5,23.8h28.7l-2.6,12.2h-28.7l-5.1,23.7h32.9l-2.5,12.1h-47.5l17.8-84h45.5L798.6,287.7z"
		/>
	<path class="st4" d="M814.4,352.7c0,2.4-0.8,4.3-2.5,5.9s-3.8,2.3-6.2,2.3c-2.4,0-4.4-0.7-6.1-2.2c-1.6-1.5-2.4-3.3-2.4-5.6
		c0-2.3,0.8-4.3,2.5-5.9c1.7-1.6,3.8-2.4,6.4-2.4c2.4,0,4.4,0.8,6,2.3C813.6,348.6,814.4,350.5,814.4,352.7z"/>
	<path class="st4" d="M902.6,292.6c-6.5-3.9-13.3-5.9-20.3-5.9c-6.8,0-12.8,1.6-18.1,4.7c-5.3,3.1-9.4,7.4-12.3,12.9
		c-2.9,5.5-4.3,11.7-4.3,18.6c0,8,2.2,14.3,6.7,18.7c4.4,4.4,10.4,6.7,18,6.7c3.9,0,7.5-0.4,10.9-1.3c3.4-0.9,6.9-2.3,10.6-4.3
		l-3.1,14.1c-6.3,2.7-13.6,4.1-21.9,4.1c-7.3,0-13.7-1.5-19.2-4.5c-5.5-3-9.8-7.3-12.7-12.9c-3-5.6-4.4-12-4.4-19.2
		c0-9.8,2.1-18.5,6.3-26.2c4.2-7.7,10.1-13.6,17.8-17.8c7.7-4.1,16.5-6.2,26.6-6.2c7.9,0,15.4,1.5,22.6,4.6L902.6,292.6z"/>
	<path class="st4" d="M988,309.9c0,9.1-1.9,17.5-5.8,25.5c-3.8,7.9-9.2,14.2-16,18.8c-6.8,4.6-14.9,6.9-24.2,6.9
		c-6.8,0-12.9-1.5-18.1-4.5c-5.3-3-9.3-7.3-12.2-12.8s-4.3-11.7-4.3-18.7c0-7.3,1.2-14.1,3.5-20.4c2.3-6.2,5.7-11.7,10-16.5
		s9.3-8.3,14.8-10.6c5.4-2.3,11.4-3.5,17.8-3.5c6.8,0,12.8,1.5,18,4.4c5.3,3,9.3,7.1,12.2,12.6C986.6,296.5,988,302.8,988,309.9z
		 M972.8,310.4c0-7.3-1.9-13-5.6-17.3c-3.7-4.2-8.8-6.4-15.1-6.4c-5.3,0-10.3,1.7-14.9,5c-4.6,3.3-8.2,8-10.7,14.1
		c-2.6,6.1-3.8,12.4-3.8,19c0,7.1,1.8,12.8,5.5,17.1c3.7,4.2,8.7,6.4,15.1,6.4c5.6,0,10.6-1.6,15.1-4.9c4.5-3.3,8-8,10.6-14.1
		C971.5,323.2,972.8,316.9,972.8,310.4z"/>
	<path class="st4" d="M1075.3,359.5H1062l11.3-53.3c1.1-4.9,2.6-10.7,4.5-17.3h-0.4c-2,4.4-5.1,9.5-9.4,15.2l-23.8,31.9h-9
		l-9.6-30.9c-0.7-2.1-1.3-4.8-1.9-7.9c-0.6-3.1-0.9-5.9-1-8.3h-0.4c-1.4,8.6-2.4,14.4-3,17.4l-11.4,53.3h-13.2l17.8-84h17.1l11,34.6
		c1.2,3.7,1.9,7.2,2.1,10.5h0.3c2.1-4.7,4.4-8.6,6.6-11.6l25.1-33.5h18.7L1075.3,359.5z"/>
</g>
<g>
</g>
<g>
</g>
<g>
</g>
<g>
</g>
<g>
</g>
</svg>
